999
DXF created by Inkscape
  0
SECTION
  2
HEADER
  9
$ACADVER
  1
AC1014
  9
$HANDSEED
  5
FFFF
  9
$MEASUREMENT
 70
     1
  0
ENDSEC
  0
SECTION
  2
TABLES
  0
TABLE
  2
VPORT
  5
8
330
0
100
AcDbSymbolTable
 70
     4
  0
VPORT
  5
2E
330
8
100
AcDbSymbolTableRecord
100
AcDbViewportTableRecord
  2
*ACTIVE
 70
     0
 10
0.0
 20
0.0
 11
1.0
 21
1.0
 12
210.0
 22
148.5
 13
0.0
 23
0.0
 14
10.0
 24
10.0
 15
10.0
 25
10.0
 16
0.0
 26
0.0
 36
1.0
 17
0.0
 27
0.0
 37
0.0
 40
341.0
 41
1.24
 42
50.0
 43
0.0
 44
0.0
 50
0.0
 51
0.0
 71
     0
 72
   100
 73
     1
 74
     3
 75
     0
 76
     0
 77
     0
 78
     0
  0
ENDTAB
  0
TABLE
  2
LTYPE
  5
5
330
0
100
AcDbSymbolTable
 70
     1
  0
LTYPE
  5
14
330
5
100
AcDbSymbolTableRecord
100
AcDbLinetypeTableRecord
  2
BYBLOCK
 70
     0
  3

 72
    65
 73
     0
 40
0.0
  0
LTYPE
  5
15
330
5
100
AcDbSymbolTableRecord
100
AcDbLinetypeTableRecord
  2
BYLAYER
 70
     0
  3

 72
    65
 73
     0
 40
0.0
  0
LTYPE
  5
16
330
5
100
AcDbSymbolTableRecord
100
AcDbLinetypeTableRecord
  2
CONTINUOUS
 70
     0
  3
Solid line
 72
    65
 73
     0
 40
0.0
  0
ENDTAB
  0
TABLE
  2
LAYER
  5
2
100
AcDbSymbolTable
 70
2
  0
LAYER
  5
50
100
AcDbSymbolTableRecord
100
AcDbLayerTableRecord
  2
0
 70
0
  6
CONTINUOUS
  0
LAYER
  5
51
100
AcDbSymbolTableRecord
100
AcDbLayerTableRecord
  2
Capa_1
 70
0
  6
CONTINUOUS
  0
ENDTAB
  0
TABLE
  2
STYLE
  5
3
330
0
100
AcDbSymbolTable
 70
     1
  0
STYLE
  5
11
330
3
100
AcDbSymbolTableRecord
100
AcDbTextStyleTableRecord
  2
STANDARD
 70
     0
 40
0.0
 41
1.0
 50
0.0
 71
     0
 42
2.5
  3
txt
  4

  0
ENDTAB
  0
TABLE
  2
VIEW
  5
6
330
0
100
AcDbSymbolTable
 70
     0
  0
ENDTAB
  0
TABLE
  2
UCS
  5
7
330
0
100
AcDbSymbolTable
 70
     0
  0
ENDTAB
  0
TABLE
  2
APPID
  5
9
330
0
100
AcDbSymbolTable
 70
     2
  0
APPID
  5
12
330
9
100
AcDbSymbolTableRecord
100
AcDbRegAppTableRecord
  2
ACAD
 70
     0
  0
ENDTAB
  0
TABLE
  2
DIMSTYLE
  5
A
330
0
100
AcDbSymbolTable
 70
     1
  0
DIMSTYLE
105
27
330
A
100
AcDbSymbolTableRecord
100
AcDbDimStyleTableRecord
  2
ISO-25
 70
     0
  3

  4

  5

  6

  7

 40
1.0
 41
2.5
 42
0.625
 43
3.75
 44
1.25
 45
0.0
 46
0.0
 47
0.0
 48
0.0
140
2.5
141
2.5
142
0.0
143
0.03937007874016
144
1.0
145
0.0
146
1.0
147
0.625
 71
     0
 72
     0
 73
     0
 74
     0
 75
     0
 76
     0
 77
     1
 78
     8
170
     0
171
     3
172
     1
173
     0
174
     0
175
     0
176
     0
177
     0
178
     0
270
     2
271
     2
272
     2
273
     2
274
     3
340
11
275
     0
280
     0
281
     0
282
     0
283
     0
284
     8
285
     0
286
     0
287
     3
288
     0
  0
ENDTAB
  0
TABLE
  2
BLOCK_RECORD
  5
1
330
0
100
AcDbSymbolTable
 70
     1
  0
BLOCK_RECORD
  5
1F
330
1
100
AcDbSymbolTableRecord
100
AcDbBlockTableRecord
  2
*MODEL_SPACE
  0
BLOCK_RECORD
  5
1B
330
1
100
AcDbSymbolTableRecord
100
AcDbBlockTableRecord
  2
*PAPER_SPACE
  0
ENDTAB
  0
ENDSEC
  0
SECTION
  2
BLOCKS
  0
BLOCK
  5
20
330
1F
100
AcDbEntity
  8
0
100
AcDbBlockBegin
  2
*MODEL_SPACE
 70
     0
 10
0.0
 20
0.0
 30
0.0
  3
*MODEL_SPACE
  1

  0
ENDBLK
  5
21
330
1F
100
AcDbEntity
  8
0
100
AcDbBlockEnd
  0
BLOCK
  5
1C
330
1B
100
AcDbEntity
 67
     1
  8
0
100
AcDbBlockBegin
  2
*PAPER_SPACE
  1

  0
ENDBLK
  5
1D
330
1B
100
AcDbEntity
 67
     1
  8
0
100
AcDbBlockEnd
  0
ENDSEC
  0
SECTION
  2
ENTITIES
  0
LWPOLYLINE
  5
100
100
AcDbEntity
  8
Capa_1
 62
7
100
AcDbPolyline
 90
25
 70
0
 10
7.708646
 20
13.310341
 30
0.0
 10
7.708646
 20
16.601052
 30
0.0
 10
7.708646
 20
19.891774
 30
0.0
 10
7.846935
 20
20.614257
 30
0.0
 10
8.261802
 20
21.223863
 30
0.0
 10
8.877046
 20
21.638724
 30
0.0
 10
9.593890
 20
21.777019
 30
0.0
 10
10.536513
 20
21.777019
 30
0.0
 10
11.479135
 20
21.777019
 30
0.0
 10
12.193151
 20
21.635902
 30
0.0
 10
12.799935
 20
21.212574
 30
0.0
 10
13.214796
 20
20.605791
 30
0.0
 10
13.353090
 20
19.891774
 30
0.0
 10
13.353090
 20
16.601052
 30
0.0
 10
13.353090
 20
13.310341
 30
0.0
 10
12.416113
 20
13.310341
 30
0.0
 10
11.479135
 20
13.310341
 30
0.0
 10
11.479135
 20
15.189941
 30
0.0
 10
11.479135
 20
17.069552
 30
0.0
 10
10.536513
 20
17.069552
 30
0.0
 10
9.593890
 20
17.069552
 30
0.0
 10
9.593890
 20
15.189941
 30
0.0
 10
9.593890
 20
13.310341
 30
0.0
 10
8.651268
 20
13.310341
 30
0.0
 10
7.708646
 20
13.310341
 30
0.0
  0
LWPOLYLINE
  5
101
100
AcDbEntity
  8
Capa_1
 62
7
100
AcDbPolyline
 90
15
 70
0
 10
9.593890
 20
18.017819
 30
0.0
 10
10.536513
 20
18.017819
 30
0.0
 10
11.479135
 20
18.017819
 30
0.0
 10
11.479135
 20
18.954796
 30
0.0
 10
11.479135
 20
19.891774
 30
0.0
 10
11.408577
 20
20.255835
 30
0.0
 10
11.196913
 20
20.557819
 30
0.0
 10
10.894932
 20
20.769480
 30
0.0
 10
10.530868
 20
20.840041
 30
0.0
 10
10.172443
 20
20.769480
 30
0.0
 10
9.864824
 20
20.557819
 30
0.0
 10
9.661621
 20
20.255835
 30
0.0
 10
9.593890
 20
19.891774
 30
0.0
 10
9.593890
 20
18.954796
 30
0.0
 10
9.593890
 20
18.017819
 30
0.0
  0
LWPOLYLINE
  5
102
100
AcDbEntity
  8
Capa_1
 62
7
100
AcDbPolyline
 90
45
 70
0
 10
17.134515
 20
13.310341
 30
0.0
 10
16.663204
 20
13.310341
 30
0.0
 10
16.191893
 20
13.310341
 30
0.0
 10
15.720582
 20
13.310341
 30
0.0
 10
15.249271
 20
13.310341
 30
0.0
 10
15.249271
 20
14.955696
 30
0.0
 10
15.249271
 20
16.601052
 30
0.0
 10
15.249271
 20
18.246413
 30
0.0
 10
15.249271
 20
19.891774
 30
0.0
 10
15.720582
 20
19.891774
 30
0.0
 10
16.191893
 20
19.891774
 30
0.0
 10
16.663204
 20
19.891774
 30
0.0
 10
17.134515
 20
19.891774
 30
0.0
 10
17.134515
 20
19.423285
 30
0.0
 10
17.228970
 20
19.137984
 30
0.0
 10
17.500696
 20
19.156583
 30
0.0
 10
17.710249
 20
19.417641
 30
0.0
 10
17.969890
 20
19.625074
 30
0.0
 10
18.274688
 20
19.773238
 30
0.0
 10
18.624646
 20
19.862138
 30
0.0
 10
19.019760
 20
19.891774
 30
0.0
 10
19.254004
 20
19.891774
 30
0.0
 10
19.488249
 20
19.891774
 30
0.0
 10
19.722493
 20
19.891774
 30
0.0
 10
19.956738
 20
19.891774
 30
0.0
 10
19.956738
 20
19.423285
 30
0.0
 10
19.956738
 20
18.954796
 30
0.0
 10
19.956738
 20
18.486308
 30
0.0
 10
19.956738
 20
18.017819
 30
0.0
 10
19.485427
 20
18.017819
 30
0.0
 10
19.014115
 20
18.017819
 30
0.0
 10
18.542804
 20
18.017819
 30
0.0
 10
18.071493
 20
18.017819
 30
0.0
 10
17.885929
 20
18.000180
 30
0.0
 10
17.713068
 20
17.947257
 30
0.0
 10
17.552907
 20
17.859063
 30
0.0
 10
17.405449
 20
17.735594
 30
0.0
 10
17.286913
 20
17.592363
 30
0.0
 10
17.202246
 20
17.433613
 30
0.0
 10
17.151446
 20
17.259341
 30
0.0
 10
17.134513
 20
17.069549
 30
0.0
 10
17.134513
 20
16.129741
 30
0.0
 10
17.134513
 20
15.189941
 30
0.0
 10
17.134513
 20
14.250141
 30
0.0
 10
17.134513
 20
13.310341
 30
0.0
  0
LWPOLYLINE
  5
103
100
AcDbEntity
  8
Capa_1
 62
7
100
AcDbPolyline
 90
47
 70
0
 10
26.538160
 20
13.310341
 30
0.0
 10
26.069671
 20
13.310341
 30
0.0
 10
25.601182
 20
13.310341
 30
0.0
 10
25.132693
 20
13.310341
 30
0.0
 10
24.664204
 20
13.310341
 30
0.0
 10
24.088468
 20
13.368902
 30
0.0
 10
23.715938
 20
13.310341
 30
0.0
 10
23.481693
 20
13.310341
 30
0.0
 10
23.247449
 20
13.310341
 30
0.0
 10
23.013204
 20
13.310341
 30
0.0
 10
22.778960
 20
13.310341
 30
0.0
 10
22.407838
 20
13.344913
 30
0.0
 10
22.062115
 20
13.448630
 30
0.0
 10
21.741793
 20
13.621491
 30
0.0
 10
21.446871
 20
13.863496
 30
0.0
 10
21.204863
 20
14.154185
 30
0.0
 10
21.032004
 20
14.473096
 30
0.0
 10
20.928288
 20
14.820230
 30
0.0
 10
20.893715
 20
15.195585
 30
0.0
 10
20.893715
 20
15.901141
 30
0.0
 10
20.893715
 20
16.606696
 30
0.0
 10
20.893715
 20
17.312257
 30
0.0
 10
20.893715
 20
18.017819
 30
0.0
 10
20.928288
 20
18.388233
 30
0.0
 10
21.032004
 20
18.731835
 30
0.0
 10
21.204863
 20
19.048633
 30
0.0
 10
21.446871
 20
19.338619
 30
0.0
 10
21.741793
 20
19.580619
 30
0.0
 10
22.062115
 20
19.753480
 30
0.0
 10
22.407838
 20
19.857199
 30
0.0
 10
22.778960
 20
19.891774
 30
0.0
 10
23.250271
 20
19.891774
 30
0.0
 10
23.721582
 20
19.891774
 30
0.0
 10
24.192893
 20
19.891774
 30
0.0
 10
24.664204
 20
19.891774
 30
0.0
 10
24.664204
 20
20.363085
 30
0.0
 10
24.664204
 20
20.834396
 30
0.0
 10
24.664204
 20
21.305708
 30
0.0
 10
24.664204
 20
21.777019
 30
0.0
 10
25.132693
 20
21.777019
 30
0.0
 10
25.601182
 20
21.777019
 30
0.0
 10
26.069671
 20
21.777019
 30
0.0
 10
26.538160
 20
21.777019
 30
0.0
 10
26.538160
 20
19.660349
 30
0.0
 10
26.538160
 20
17.543680
 30
0.0
 10
26.538160
 20
15.427007
 30
0.0
 10
26.538160
 20
13.310341
 30
0.0
  0
LWPOLYLINE
  5
104
100
AcDbEntity
  8
Capa_1
 62
7
100
AcDbPolyline
 90
37
 70
0
 10
24.664204
 20
18.954796
 30
0.0
 10
24.427138
 20
18.954796
 30
0.0
 10
24.190071
 20
18.954796
 30
0.0
 10
23.953004
 20
18.954796
 30
0.0
 10
23.715938
 20
18.954796
 30
0.0
 10
23.530374
 20
18.937158
 30
0.0
 10
23.357513
 20
18.884235
 30
0.0
 10
23.197352
 20
18.796041
 30
0.0
 10
23.049893
 20
18.672571
 30
0.0
 10
22.931357
 20
18.530046
 30
0.0
 10
22.846690
 20
18.373413
 30
0.0
 10
22.795890
 20
18.202669
 30
0.0
 10
22.778957
 20
18.017816
 30
0.0
 10
22.778957
 20
17.312255
 30
0.0
 10
22.778957
 20
16.606696
 30
0.0
 10
22.778957
 20
15.901141
 30
0.0
 10
22.778957
 20
15.195585
 30
0.0
 10
22.795890
 20
15.010024
 30
0.0
 10
22.846688
 20
14.837163
 30
0.0
 10
22.931354
 20
14.677002
 30
0.0
 10
23.049890
 20
14.529541
 30
0.0
 10
23.197349
 20
14.406069
 30
0.0
 10
23.357510
 20
14.317874
 30
0.0
 10
23.530371
 20
14.264957
 30
0.0
 10
23.715935
 20
14.247460
 30
0.0
 10
23.905726
 20
14.264957
 30
0.0
 10
24.079999
 20
14.317902
 30
0.0
 10
24.238749
 20
14.406097
 30
0.0
 10
24.381979
 20
14.529569
 30
0.0
 10
24.505449
 20
14.677030
 30
0.0
 10
24.593643
 20
14.837191
 30
0.0
 10
24.646560
 20
15.010052
 30
0.0
 10
24.664199
 20
15.195613
 30
0.0
 10
24.664199
 20
16.135413
 30
0.0
 10
24.664199
 20
17.075216
 30
0.0
 10
24.664199
 20
18.015019
 30
0.0
 10
24.664199
 20
18.954822
 30
0.0
  0
LWPOLYLINE
  5
105
100
AcDbEntity
  8
Capa_1
 62
7
100
AcDbPolyline
 90
59
 70
0
 10
34.078785
 20
19.891774
 30
0.0
 10
34.078785
 20
18.246413
 30
0.0
 10
34.078785
 20
16.601052
 30
0.0
 10
34.078785
 20
14.955696
 30
0.0
 10
34.078785
 20
13.310341
 30
0.0
 10
33.610296
 20
13.310341
 30
0.0
 10
33.141807
 20
13.310341
 30
0.0
 10
32.673318
 20
13.310341
 30
0.0
 10
32.204829
 20
13.310341
 30
0.0
 10
31.629093
 20
13.368902
 30
0.0
 10
31.256563
 20
13.310341
 30
0.0
 10
31.022318
 20
13.310341
 30
0.0
 10
30.788074
 20
13.310341
 30
0.0
 10
30.553829
 20
13.310341
 30
0.0
 10
30.319585
 20
13.310341
 30
0.0
 10
29.948463
 20
13.344913
 30
0.0
 10
29.602740
 20
13.448630
 30
0.0
 10
29.282418
 20
13.621491
 30
0.0
 10
28.987496
 20
13.863496
 30
0.0
 10
28.745488
 20
14.154185
 30
0.0
 10
28.572629
 20
14.473096
 30
0.0
 10
28.468913
 20
14.820230
 30
0.0
 10
28.434340
 20
15.195585
 30
0.0
 10
28.434340
 20
16.369630
 30
0.0
 10
28.434340
 20
17.543680
 30
0.0
 10
28.434340
 20
18.717727
 30
0.0
 10
28.434340
 20
19.891774
 30
0.0
 10
28.905652
 20
19.891774
 30
0.0
 10
29.376963
 20
19.891774
 30
0.0
 10
29.848274
 20
19.891774
 30
0.0
 10
30.319585
 20
19.891774
 30
0.0
 10
30.319585
 20
18.717727
 30
0.0
 10
30.319585
 20
17.543680
 30
0.0
 10
30.319585
 20
16.369630
 30
0.0
 10
30.319585
 20
15.195585
 30
0.0
 10
30.336518
 20
15.010024
 30
0.0
 10
30.387315
 20
14.837163
 30
0.0
 10
30.471982
 20
14.677002
 30
0.0
 10
30.590518
 20
14.529541
 30
0.0
 10
30.737977
 20
14.406069
 30
0.0
 10
30.898138
 20
14.317874
 30
0.0
 10
31.070999
 20
14.264957
 30
0.0
 10
31.256563
 20
14.247460
 30
0.0
 10
31.446354
 20
14.264957
 30
0.0
 10
31.620627
 20
14.317902
 30
0.0
 10
31.779377
 20
14.406097
 30
0.0
 10
31.922607
 20
14.529569
 30
0.0
 10
32.046077
 20
14.677030
 30
0.0
 10
32.134271
 20
14.837191
 30
0.0
 10
32.187188
 20
15.010052
 30
0.0
 10
32.204827
 20
15.195613
 30
0.0
 10
32.204827
 20
16.369658
 30
0.0
 10
32.204827
 20
17.543708
 30
0.0
 10
32.204827
 20
18.717755
 30
0.0
 10
32.204827
 20
19.891802
 30
0.0
 10
32.673315
 20
19.891802
 30
0.0
 10
33.141804
 20
19.891802
 30
0.0
 10
33.610293
 20
19.891802
 30
0.0
 10
34.078782
 20
19.891802
 30
0.0
  0
LWPOLYLINE
  5
106
100
AcDbEntity
  8
Capa_1
 62
7
100
AcDbPolyline
 90
109
 70
0
 10
5.349534
 20
8.264207
 30
0.0
 10
5.115289
 20
8.264207
 30
0.0
 10
4.881045
 20
8.264207
 30
0.0
 10
4.646800
 20
8.264207
 30
0.0
 10
4.412556
 20
8.264207
 30
0.0
 10
4.310247
 20
8.679074
 30
0.0
 10
4.127508
 20
8.975407
 30
0.0
 10
3.864336
 20
9.153207
 30
0.0
 10
3.520734
 20
9.212474
 30
0.0
 10
3.287897
 20
9.197516
 30
0.0
 10
3.086108
 20
9.153066
 30
0.0
 10
2.915364
 20
9.078983
 30
0.0
 10
2.775667
 20
8.975266
 30
0.0
 10
2.667008
 20
8.841916
 30
0.0
 10
2.589397
 20
8.678933
 30
0.0
 10
2.542831
 20
8.486316
 30
0.0
 10
2.527308
 20
8.264066
 30
0.0
 10
2.544242
 20
8.091205
 30
0.0
 10
2.595039
 20
7.922577
 30
0.0
 10
2.679708
 20
7.758183
 30
0.0
 10
2.798242
 20
7.598022
 30
0.0
 10
3.297775
 20
7.039222
 30
0.0
 10
3.797308
 20
6.480422
 30
0.0
 10
4.296842
 20
5.921622
 30
0.0
 10
4.796375
 20
5.362822
 30
0.0
 10
5.038378
 20
5.046733
 30
0.0
 10
5.211236
 20
4.719355
 30
0.0
 10
5.314956
 20
4.380689
 30
0.0
 10
5.349531
 20
4.030733
 30
0.0
 10
5.349531
 20
3.915022
 30
0.0
 10
5.349531
 20
3.799311
 30
0.0
 10
5.349531
 20
3.683600
 30
0.0
 10
5.349531
 20
3.567889
 30
0.0
 10
5.314956
 20
3.196766
 30
0.0
 10
5.211236
 20
2.851044
 30
0.0
 10
5.038378
 20
2.530722
 30
0.0
 10
4.796375
 20
2.235800
 30
0.0
 10
4.505683
 20
1.993794
 30
0.0
 10
4.186769
 20
1.820933
 30
0.0
 10
3.839639
 20
1.717216
 30
0.0
 10
3.464286
 20
1.682644
 30
0.0
 10
3.230042
 20
1.682644
 30
0.0
 10
2.995797
 20
1.682644
 30
0.0
 10
2.761553
 20
1.682644
 30
0.0
 10
2.527308
 20
1.682644
 30
0.0
 10
2.087747
 20
1.711572
 30
0.0
 10
1.706039
 20
1.798355
 30
0.0
 10
1.382192
 20
1.942994
 30
0.0
 10
1.116197
 20
2.145489
 30
0.0
 10
0.908764
 20
2.412189
 30
0.0
 10
0.760595
 20
2.738155
 30
0.0
 10
0.671697
 20
3.123389
 30
0.0
 10
0.642064
 20
3.567889
 30
0.0
 10
0.879131
 20
3.567889
 30
0.0
 10
1.116197
 20
3.567889
 30
0.0
 10
1.353264
 20
3.567889
 30
0.0
 10
1.590331
 20
3.567889
 30
0.0
 10
1.590331
 20
3.519911
 30
0.0
 10
1.590328
 20
3.477577
 30
0.0
 10
1.590331
 20
3.440917
 30
0.0
 10
1.590331
 20
3.409844
 30
0.0
 10
1.608675
 20
3.229222
 30
0.0
 10
1.663703
 20
3.071177
 30
0.0
 10
1.755428
 20
2.935711
 30
0.0
 10
1.883839
 20
2.822822
 30
0.0
 10
2.034119
 20
2.733922
 30
0.0
 10
2.191458
 20
2.670422
 30
0.0
 10
2.355853
 20
2.632322
 30
0.0
 10
2.527306
 20
2.619622
 30
0.0
 10
2.758019
 20
2.634580
 30
0.0
 10
2.953458
 20
2.679030
 30
0.0
 10
3.113619
 20
2.753113
 30
0.0
 10
3.238506
 20
2.856830
 30
0.0
 10
3.337281
 20
2.994413
 30
0.0
 10
3.407836
 20
3.158807
 30
0.0
 10
3.450169
 20
3.350013
 30
0.0
 10
3.464281
 20
3.568030
 30
0.0
 10
3.447347
 20
3.745124
 30
0.0
 10
3.396547
 20
3.915163
 30
0.0
 10
3.311881
 20
4.078146
 30
0.0
 10
3.193350
 20
4.234074
 30
0.0
 10
2.693817
 20
4.792874
 30
0.0
 10
2.194283
 20
5.351674
 30
0.0
 10
1.694750
 20
5.910474
 30
0.0
 10
1.195217
 20
6.469274
 30
0.0
 10
0.953211
 20
6.781130
 30
0.0
 10
0.780350
 20
7.107096
 30
0.0
 10
0.676633
 20
7.447146
 30
0.0
 10
0.642061
 20
7.801363
 30
0.0
 10
0.642061
 20
7.917074
 30
0.0
 10
0.642061
 20
8.032785
 30
0.0
 10
0.642061
 20
8.148496
 30
0.0
 10
0.642061
 20
8.264207
 30
0.0
 10
0.676633
 20
8.634624
 30
0.0
 10
0.780350
 20
8.978230
 30
0.0
 10
0.953211
 20
9.295024
 30
0.0
 10
1.195217
 20
9.585007
 30
0.0
 10
1.485906
 20
9.831924
 30
0.0
 10
1.804814
 20
10.008341
 30
0.0
 10
2.151950
 20
10.114174
 30
0.0
 10
2.527306
 20
10.149452
 30
0.0
 10
2.761550
 20
10.149452
 30
0.0
 10
2.995795
 20
10.149452
 30
0.0
 10
3.230039
 20
10.149452
 30
0.0
 10
3.464283
 20
10.149452
 30
0.0
 10
4.246742
 20
10.031624
 30
0.0
 10
4.821769
 20
9.678141
 30
0.0
 10
5.189364
 20
9.089002
 30
0.0
 10
5.349528
 20
8.264207
 30
0.0
  0
LWPOLYLINE
  5
107
100
AcDbEntity
  8
Capa_1
 62
7
100
AcDbPolyline
 90
23
 70
0
 10
7.234600
 20
1.682785
 30
0.0
 10
7.234600
 20
5.916119
 30
0.0
 10
7.234600
 20
10.149452
 30
0.0
 10
8.177222
 20
10.149452
 30
0.0
 10
9.119845
 20
10.149452
 30
0.0
 10
9.119845
 20
8.032785
 30
0.0
 10
9.119845
 20
5.916119
 30
0.0
 10
10.530956
 20
7.090163
 30
0.0
 10
11.942067
 20
8.264207
 30
0.0
 10
12.884689
 20
8.264207
 30
0.0
 10
13.827311
 20
8.264207
 30
0.0
 10
11.857400
 20
6.621674
 30
0.0
 10
9.887489
 20
4.979141
 30
0.0
 10
11.857400
 20
3.330963
 30
0.0
 10
13.827311
 20
1.682785
 30
0.0
 10
12.884689
 20
1.682785
 30
0.0
 10
11.942067
 20
1.682785
 30
0.0
 10
10.530956
 20
2.856830
 30
0.0
 10
9.119845
 20
4.030874
 30
0.0
 10
9.119845
 20
2.856830
 30
0.0
 10
9.119845
 20
1.682785
 30
0.0
 10
8.177222
 20
1.682785
 30
0.0
 10
7.234600
 20
1.682785
 30
0.0
  0
LWPOLYLINE
  5
108
100
AcDbEntity
  8
Capa_1
 62
7
100
AcDbPolyline
 90
93
 70
0
 10
15.723492
 20
0.745807
 30
0.0
 10
15.807453
 20
0.330941
 30
0.0
 10
15.991603
 20
0.034607
 30
0.0
 10
16.275942
 20
-0.143193
 30
0.0
 10
16.660470
 20
-0.202459
 30
0.0
 10
16.894714
 20
-0.202459
 30
0.0
 10
17.128958
 20
-0.202459
 30
0.0
 10
17.363203
 20
-0.202459
 30
0.0
 10
17.597447
 20
-0.202459
 30
0.0
 10
17.787239
 20
-0.184961
 30
0.0
 10
17.961511
 20
-0.132017
 30
0.0
 10
18.120261
 20
-0.043822
 30
0.0
 10
18.263492
 20
0.079650
 30
0.0
 10
18.386961
 20
0.222878
 30
0.0
 10
18.475156
 20
0.381628
 30
0.0
 10
18.528075
 20
0.555900
 30
0.0
 10
18.545714
 20
0.745695
 30
0.0
 10
18.545714
 20
1.214183
 30
0.0
 10
18.545714
 20
1.682672
 30
0.0
 10
17.969978
 20
1.741233
 30
0.0
 10
17.597447
 20
1.682672
 30
0.0
 10
17.363203
 20
1.682672
 30
0.0
 10
17.128958
 20
1.682672
 30
0.0
 10
16.894714
 20
1.682672
 30
0.0
 10
16.660470
 20
1.682672
 30
0.0
 10
16.289347
 20
1.717245
 30
0.0
 10
15.943625
 20
1.820961
 30
0.0
 10
15.623303
 20
1.993822
 30
0.0
 10
15.328381
 20
2.235828
 30
0.0
 10
15.086375
 20
2.526517
 30
0.0
 10
14.913514
 20
2.845428
 30
0.0
 10
14.809797
 20
3.192561
 30
0.0
 10
14.775225
 20
3.567917
 30
0.0
 10
14.775225
 20
4.741961
 30
0.0
 10
14.775225
 20
5.916006
 30
0.0
 10
14.775225
 20
7.090050
 30
0.0
 10
14.775225
 20
8.264095
 30
0.0
 10
15.246536
 20
8.264095
 30
0.0
 10
15.717847
 20
8.264095
 30
0.0
 10
16.189158
 20
8.264095
 30
0.0
 10
16.660470
 20
8.264095
 30
0.0
 10
16.660470
 20
7.090050
 30
0.0
 10
16.660470
 20
5.916006
 30
0.0
 10
16.660470
 20
4.741961
 30
0.0
 10
16.660470
 20
3.567917
 30
0.0
 10
16.677403
 20
3.382356
 30
0.0
 10
16.728200
 20
3.209495
 30
0.0
 10
16.812867
 20
3.049333
 30
0.0
 10
16.931403
 20
2.901872
 30
0.0
 10
17.078861
 20
2.778400
 30
0.0
 10
17.239022
 20
2.690206
 30
0.0
 10
17.411886
 20
2.637289
 30
0.0
 10
17.597447
 20
2.619791
 30
0.0
 10
17.787239
 20
2.637289
 30
0.0
 10
17.961511
 20
2.690234
 30
0.0
 10
18.120264
 20
2.778428
 30
0.0
 10
18.263492
 20
2.901901
 30
0.0
 10
18.386961
 20
3.049362
 30
0.0
 10
18.475156
 20
3.209523
 30
0.0
 10
18.528075
 20
3.382384
 30
0.0
 10
18.545714
 20
3.567945
 30
0.0
 10
18.545714
 20
4.741989
 30
0.0
 10
18.545714
 20
5.916034
 30
0.0
 10
18.545714
 20
7.090078
 30
0.0
 10
18.545714
 20
8.264123
 30
0.0
 10
19.014203
 20
8.264123
 30
0.0
 10
19.482692
 20
8.264123
 30
0.0
 10
19.951181
 20
8.264123
 30
0.0
 10
20.419670
 20
8.264123
 30
0.0
 10
20.419670
 20
6.384523
 30
0.0
 10
20.419670
 20
4.504923
 30
0.0
 10
20.419670
 20
2.625323
 30
0.0
 10
20.419670
 20
0.745723
 30
0.0
 10
20.385095
 20
0.375306
 30
0.0
 10
20.281378
 20
0.031701
 30
0.0
 10
20.108517
 20
-0.285094
 30
0.0
 10
19.866514
 20
-0.575077
 30
0.0
 10
19.576528
 20
-0.822022
 30
0.0
 10
19.259733
 20
-0.998411
 30
0.0
 10
18.916128
 20
-1.104244
 30
0.0
 10
18.545714
 20
-1.139522
 30
0.0
 10
18.074403
 20
-1.139522
 30
0.0
 10
17.603092
 20
-1.139522
 30
0.0
 10
17.131781
 20
-1.139522
 30
0.0
 10
16.660470
 20
-1.139522
 30
0.0
 10
15.920342
 20
-1.021694
 30
0.0
 10
15.359425
 20
-0.668211
 30
0.0
 10
14.977720
 20
-0.079072
 30
0.0
 10
14.775225
 20
0.745723
 30
0.0
 10
15.012292
 20
0.745723
 30
0.0
 10
15.249358
 20
0.745723
 30
0.0
 10
15.486425
 20
0.745723
 30
0.0
 10
15.723492
 20
0.745723
 30
0.0
  0
LWPOLYLINE
  5
109
100
AcDbEntity
  8
Capa_1
 62
7
100
AcDbPolyline
 90
53
 70
0
 10
22.315850
 20
1.682785
 30
0.0
 10
22.315850
 20
3.799452
 30
0.0
 10
22.315850
 20
5.916119
 30
0.0
 10
22.315850
 20
8.032785
 30
0.0
 10
22.315850
 20
10.149452
 30
0.0
 10
23.258472
 20
10.149452
 30
0.0
 10
24.201095
 20
10.149452
 30
0.0
 10
25.143717
 20
10.149452
 30
0.0
 10
26.086339
 20
10.149452
 30
0.0
 10
26.456753
 20
10.114174
 30
0.0
 10
26.800358
 20
10.008341
 30
0.0
 10
27.117153
 20
9.831924
 30
0.0
 10
27.407139
 20
9.585007
 30
0.0
 10
27.649142
 20
9.295024
 30
0.0
 10
27.822003
 20
8.978230
 30
0.0
 10
27.925720
 20
8.634624
 30
0.0
 10
27.960295
 20
8.264207
 30
0.0
 10
27.960295
 20
8.148496
 30
0.0
 10
27.960295
 20
8.032785
 30
0.0
 10
27.960295
 20
7.917074
 30
0.0
 10
27.960295
 20
7.801363
 30
0.0
 10
27.930658
 20
7.406252
 30
0.0
 10
27.841756
 20
7.056296
 30
0.0
 10
27.693592
 20
6.751496
 30
0.0
 10
27.486161
 20
6.491852
 30
0.0
 10
27.225103
 20
6.282302
 30
0.0
 10
26.904781
 20
6.116496
 30
0.0
 10
26.525192
 20
5.994435
 30
0.0
 10
26.086339
 20
5.916119
 30
0.0
 10
26.525192
 20
5.880135
 30
0.0
 10
26.904781
 20
5.772185
 30
0.0
 10
27.225103
 20
5.592269
 30
0.0
 10
27.486161
 20
5.340385
 30
0.0
 10
27.693592
 20
5.046874
 30
0.0
 10
27.841756
 20
4.730785
 30
0.0
 10
27.930658
 20
4.392119
 30
0.0
 10
27.960295
 20
4.030874
 30
0.0
 10
27.960295
 20
3.915163
 30
0.0
 10
27.960295
 20
3.799452
 30
0.0
 10
27.960295
 20
3.683741
 30
0.0
 10
27.960295
 20
3.568030
 30
0.0
 10
27.925720
 20
3.196907
 30
0.0
 10
27.822003
 20
2.851185
 30
0.0
 10
27.649142
 20
2.530863
 30
0.0
 10
27.407139
 20
2.235941
 30
0.0
 10
27.117153
 20
1.993935
 30
0.0
 10
26.800358
 20
1.821074
 30
0.0
 10
26.456753
 20
1.717357
 30
0.0
 10
26.086339
 20
1.682785
 30
0.0
 10
25.143717
 20
1.682785
 30
0.0
 10
24.201095
 20
1.682785
 30
0.0
 10
23.258472
 20
1.682785
 30
0.0
 10
22.315850
 20
1.682785
 30
0.0
  0
LWPOLYLINE
  5
10a
100
AcDbEntity
  8
Capa_1
 62
7
100
AcDbPolyline
 90
33
 70
0
 10
24.201095
 20
6.390252
 30
0.0
 10
24.435339
 20
6.390252
 30
0.0
 10
24.669583
 20
6.390252
 30
0.0
 10
24.903828
 20
6.390252
 30
0.0
 10
25.138072
 20
6.390252
 30
0.0
 10
25.327864
 20
6.407185
 30
0.0
 10
25.502136
 20
6.457985
 30
0.0
 10
25.660886
 20
6.542652
 30
0.0
 10
25.804117
 20
6.661185
 30
0.0
 10
25.927586
 20
6.808646
 30
0.0
 10
26.015781
 20
6.968807
 30
0.0
 10
26.068700
 20
7.141669
 30
0.0
 10
26.086339
 20
7.327230
 30
0.0
 10
26.086339
 20
7.561474
 30
0.0
 10
26.086339
 20
7.795719
 30
0.0
 10
26.086339
 20
8.029963
 30
0.0
 10
26.086339
 20
8.264207
 30
0.0
 10
26.068700
 20
8.453974
 30
0.0
 10
26.015778
 20
8.628274
 30
0.0
 10
25.927583
 20
8.787024
 30
0.0
 10
25.804114
 20
8.930252
 30
0.0
 10
25.660883
 20
9.053724
 30
0.0
 10
25.502133
 20
9.141919
 30
0.0
 10
25.327861
 20
9.194835
 30
0.0
 10
25.138070
 20
9.212333
 30
0.0
 10
24.903825
 20
9.212333
 30
0.0
 10
24.669581
 20
9.212333
 30
0.0
 10
24.435336
 20
9.212333
 30
0.0
 10
24.201092
 20
9.212333
 30
0.0
 10
24.201092
 20
8.506777
 30
0.0
 10
24.201092
 20
7.801222
 30
0.0
 10
24.201092
 20
7.095666
 30
0.0
 10
24.201092
 20
6.390111
 30
0.0
  0
LWPOLYLINE
  5
10b
100
AcDbEntity
  8
Capa_1
 62
7
100
AcDbPolyline
 90
29
 70
0
 10
24.201092
 20
2.619622
 30
0.0
 10
24.435336
 20
2.619622
 30
0.0
 10
24.669581
 20
2.619622
 30
0.0
 10
24.903825
 20
2.619622
 30
0.0
 10
25.138070
 20
2.619622
 30
0.0
 10
25.327861
 20
2.637120
 30
0.0
 10
25.502133
 20
2.690065
 30
0.0
 10
25.660883
 20
2.778259
 30
0.0
 10
25.804114
 20
2.901731
 30
0.0
 10
25.927583
 20
3.049192
 30
0.0
 10
26.015778
 20
3.209353
 30
0.0
 10
26.068697
 20
3.382215
 30
0.0
 10
26.086336
 20
3.567776
 30
0.0
 10
26.086336
 20
3.802020
 30
0.0
 10
26.086336
 20
4.036265
 30
0.0
 10
26.086336
 20
4.270509
 30
0.0
 10
26.086336
 20
4.504753
 30
0.0
 10
26.027070
 20
4.914681
 30
0.0
 10
25.849267
 20
5.207487
 30
0.0
 10
25.552936
 20
5.383170
 30
0.0
 10
25.138070
 20
5.441731
 30
0.0
 10
24.903825
 20
5.441731
 30
0.0
 10
24.669581
 20
5.441731
 30
0.0
 10
24.435336
 20
5.441731
 30
0.0
 10
24.201092
 20
5.441731
 30
0.0
 10
24.201092
 20
4.736176
 30
0.0
 10
24.201092
 20
4.030620
 30
0.0
 10
24.201092
 20
3.325065
 30
0.0
 10
24.201092
 20
2.619509
 30
0.0
  0
LWPOLYLINE
  5
10c
100
AcDbEntity
  8
Capa_1
 62
7
100
AcDbPolyline
 90
25
 70
0
 10
31.741720
 20
8.264207
 30
0.0
 10
32.684342
 20
8.264207
 30
0.0
 10
33.626964
 20
8.264207
 30
0.0
 10
34.340983
 20
8.125919
 30
0.0
 10
34.947764
 20
7.711052
 30
0.0
 10
35.362628
 20
7.104274
 30
0.0
 10
35.500920
 20
6.390252
 30
0.0
 10
35.500920
 20
4.979141
 30
0.0
 10
35.500920
 20
3.568030
 30
0.0
 10
35.362628
 20
2.851185
 30
0.0
 10
34.947764
 20
2.235941
 30
0.0
 10
34.340983
 20
1.821074
 30
0.0
 10
33.626964
 20
1.682785
 30
0.0
 10
32.684342
 20
1.682785
 30
0.0
 10
31.741720
 20
1.682785
 30
0.0
 10
31.024875
 20
1.821074
 30
0.0
 10
30.409631
 20
2.235941
 30
0.0
 10
29.994764
 20
2.845541
 30
0.0
 10
29.856475
 20
3.568030
 30
0.0
 10
29.856475
 20
4.979141
 30
0.0
 10
29.856475
 20
6.390252
 30
0.0
 10
29.994764
 20
7.104274
 30
0.0
 10
30.409631
 20
7.711052
 30
0.0
 10
31.024875
 20
8.125919
 30
0.0
 10
31.741720
 20
8.264207
 30
0.0
  0
LWPOLYLINE
  5
10d
100
AcDbEntity
  8
Capa_1
 62
7
100
AcDbPolyline
 90
21
 70
0
 10
31.741720
 20
6.390252
 30
0.0
 10
31.741720
 20
4.979141
 30
0.0
 10
31.741720
 20
3.568030
 30
0.0
 10
31.809450
 20
3.209607
 30
0.0
 10
32.012653
 20
2.901985
 30
0.0
 10
32.320272
 20
2.690319
 30
0.0
 10
32.678697
 20
2.619763
 30
0.0
 10
33.042761
 20
2.690319
 30
0.0
 10
33.344742
 20
2.901985
 30
0.0
 10
33.556406
 20
3.209607
 30
0.0
 10
33.626964
 20
3.568030
 30
0.0
 10
33.626964
 20
4.979141
 30
0.0
 10
33.626964
 20
6.390252
 30
0.0
 10
33.556406
 20
6.745852
 30
0.0
 10
33.344742
 20
7.045007
 30
0.0
 10
33.042761
 20
7.256674
 30
0.0
 10
32.678697
 20
7.327230
 30
0.0
 10
32.320272
 20
7.256674
 30
0.0
 10
32.012653
 20
7.045007
 30
0.0
 10
31.809450
 20
6.745852
 30
0.0
 10
31.741720
 20
6.390252
 30
0.0
  0
LWPOLYLINE
  5
10e
100
AcDbEntity
  8
Capa_1
 62
7
100
AcDbPolyline
 90
73
 70
0
 10
37.780922
 20
10.149452
 30
0.0
 10
38.249411
 20
10.149452
 30
0.0
 10
38.717900
 20
10.149452
 30
0.0
 10
39.186389
 20
10.149452
 30
0.0
 10
39.654878
 20
10.149452
 30
0.0
 10
39.654878
 20
9.678141
 30
0.0
 10
39.654878
 20
9.206830
 30
0.0
 10
39.654878
 20
8.735519
 30
0.0
 10
39.654878
 20
8.264207
 30
0.0
 10
39.891945
 20
8.264207
 30
0.0
 10
40.129011
 20
8.264207
 30
0.0
 10
40.366078
 20
8.264207
 30
0.0
 10
40.603145
 20
8.264207
 30
0.0
 10
40.603145
 20
8.029963
 30
0.0
 10
40.603145
 20
7.795719
 30
0.0
 10
40.603145
 20
7.561474
 30
0.0
 10
40.603145
 20
7.327230
 30
0.0
 10
40.366078
 20
7.327230
 30
0.0
 10
40.129011
 20
7.327230
 30
0.0
 10
39.891945
 20
7.327230
 30
0.0
 10
39.654878
 20
7.327230
 30
0.0
 10
39.654878
 20
6.387430
 30
0.0
 10
39.654878
 20
5.447630
 30
0.0
 10
39.654878
 20
4.507830
 30
0.0
 10
39.654878
 20
3.568030
 30
0.0
 10
39.673928
 20
3.350013
 30
0.0
 10
39.731075
 20
3.158807
 30
0.0
 10
39.826325
 20
2.994413
 30
0.0
 10
39.959678
 20
2.856830
 30
0.0
 10
40.108547
 20
2.753113
 30
0.0
 10
40.250364
 20
2.679030
 30
0.0
 10
40.385125
 20
2.634580
 30
0.0
 10
40.512833
 20
2.619622
 30
0.0
 10
40.535411
 20
2.619622
 30
0.0
 10
40.557989
 20
2.619622
 30
0.0
 10
40.580567
 20
2.619622
 30
0.0
 10
40.603145
 20
2.619622
 30
0.0
 10
40.603145
 20
2.385377
 30
0.0
 10
40.603145
 20
2.151133
 30
0.0
 10
40.603145
 20
1.916889
 30
0.0
 10
40.603145
 20
1.682644
 30
0.0
 10
40.366078
 20
1.682644
 30
0.0
 10
40.129011
 20
1.682644
 30
0.0
 10
39.891945
 20
1.682644
 30
0.0
 10
39.654878
 20
1.682644
 30
0.0
 10
39.284458
 20
1.717216
 30
0.0
 10
38.940853
 20
1.820933
 30
0.0
 10
38.624058
 20
1.993794
 30
0.0
 10
38.334078
 20
2.235800
 30
0.0
 10
38.092070
 20
2.526489
 30
0.0
 10
37.919211
 20
2.845400
 30
0.0
 10
37.815495
 20
3.192533
 30
0.0
 10
37.780922
 20
3.567889
 30
0.0
 10
37.780922
 20
4.507689
 30
0.0
 10
37.780922
 20
5.447489
 30
0.0
 10
37.780922
 20
6.387289
 30
0.0
 10
37.780922
 20
7.327089
 30
0.0
 10
37.543856
 20
7.327089
 30
0.0
 10
37.306789
 20
7.327089
 30
0.0
 10
37.069722
 20
7.327089
 30
0.0
 10
36.832656
 20
7.327089
 30
0.0
 10
36.832656
 20
7.561333
 30
0.0
 10
36.832656
 20
7.795577
 30
0.0
 10
36.832656
 20
8.029822
 30
0.0
 10
36.832656
 20
8.264066
 30
0.0
 10
37.069722
 20
8.264066
 30
0.0
 10
37.306789
 20
8.264066
 30
0.0
 10
37.543856
 20
8.264066
 30
0.0
 10
37.780922
 20
8.264066
 30
0.0
 10
37.780922
 20
8.735377
 30
0.0
 10
37.780922
 20
9.206689
 30
0.0
 10
37.780922
 20
9.678000
 30
0.0
 10
37.780922
 20
10.149311
 30
0.0
  0
ENDSEC
  0
SECTION
  2
OBJECTS
  0
DICTIONARY
  5
C
330
0
100
AcDbDictionary
  3
ACAD_GROUP
350
D
  3
ACAD_MLINESTYLE
350
17
  0
DICTIONARY
  5
D
330
C
100
AcDbDictionary
  0
DICTIONARY
  5
1A
330
C
100
AcDbDictionary
  0
DICTIONARY
  5
17
330
C
100
AcDbDictionary
  3
STANDARD
350
18
  0
DICTIONARY
  5
19
330
C
100
AcDbDictionary
  0
ENDSEC
  0
EOF
